<svg version="1.1" id="Layer_1" xmlns="http://www.w3.org/2000/svg" xmlns:xlink="http://www.w3.org/1999/xlink" x="0px" y="0px"
	 width="100%" viewBox="0 0 192 192" enable-background="new 0 0 192 192" xml:space="preserve">
<path fill="#ffffff" opacity="1.000000" stroke="none" 
	d="
M75.244156,178.973541 
	C46.804279,168.385117 28.238697,149.024445 21.273405,119.721878 
	C10.361207,73.814934 39.727325,29.124926 85.923012,20.495697 
	C131.794830,11.926964 175.638702,42.917316 182.164261,89.114166 
	C188.529053,134.172882 158.465942,175.013641 113.058884,182.198959 
	C100.346817,184.210556 87.855408,183.083130 75.244156,178.973541 
M81.479515,25.104723 
	C41.114166,34.308083 12.731306,78.921844 25.550718,122.668037 
	C36.007954,158.353317 72.370216,184.490372 111.869041,178.888718 
	C157.956543,172.352661 188.977386,126.640526 177.226974,81.541824 
	C166.099915,38.835560 123.476448,14.535352 81.479515,25.104723 
z"/>
<path fill="#ffffff" opacity="1.000000" stroke="none" 
	d="
M76.708771,91.112411 
	C77.236481,87.014069 75.096695,83.924858 74.554214,80.497475 
	C74.247200,78.557709 74.448944,76.753517 76.242889,75.640862 
	C78.775490,74.070099 81.399910,74.735184 83.904373,75.768990 
	C85.935631,76.607475 86.480003,78.493568 85.984901,80.362671 
	C82.570465,93.252647 84.032341,106.464668 83.225250,119.524200 
	C83.080612,121.864571 83.857834,125.559242 80.498825,125.514359 
	C77.289551,125.471474 77.904694,121.845894 77.793037,119.448158 
	C77.360268,110.154480 78.382996,100.804977 76.708771,91.112411 
z"/>
<path fill="#ffffff" opacity="1.000000" stroke="none" 
	d="
M97.389954,101.068985 
	C97.370293,108.225029 97.369209,114.891182 97.314400,121.556892 
	C97.299400,123.381577 97.419724,125.665138 94.761871,125.503876 
	C92.491737,125.366135 92.719353,123.217964 92.711243,121.595833 
	C92.670418,113.429924 92.769997,105.262436 92.645950,97.098152 
	C92.577881,92.618347 92.078537,88.197853 90.166946,83.994637 
	C89.020660,81.474182 87.688004,78.700516 89.959648,76.018784 
	C91.296257,74.440865 92.889915,74.815338 94.488853,75.638603 
	C97.788956,77.337753 99.531883,79.900070 99.010681,83.727547 
	C98.248657,89.323486 96.954094,94.867882 97.389954,101.068985 
z"/>
<path fill="#ffffff" opacity="1.000000" stroke="none" 
	d="
M103.353668,124.068993 
	C102.287163,118.393250 102.620872,113.044044 102.811966,107.746452 
	C103.124855,99.072235 101.740685,90.504524 101.697563,81.870438 
	C101.684067,79.168671 100.922462,75.349831 104.903885,75.161934 
	C109.392738,74.950089 109.173836,78.941833 109.277855,82.099548 
	C109.579788,91.266251 106.643372,100.196777 107.351074,109.423744 
	C107.681038,113.725761 107.473557,118.080833 107.309906,122.404297 
	C107.216713,124.866722 106.613800,127.114746 103.353668,124.068993 
z"/>
<path fill="#ffffff" opacity="1.000000" stroke="none" 
	d="
M119.348534,124.749603 
	C115.888466,125.524033 116.674393,123.015892 116.741013,121.534470 
	C117.241638,110.401566 115.735237,99.330856 115.820671,88.214729 
	C115.838394,85.908417 115.993027,83.578163 114.023422,81.728210 
	C112.764458,80.545723 110.864403,79.241142 112.575623,77.161591 
	C114.119804,75.285042 116.425697,75.332657 118.573288,75.583939 
	C120.666237,75.828827 122.217659,77.384552 121.771912,79.342163 
	C118.375008,94.260468 121.904274,109.486488 119.348534,124.749603 
z"/>
<path fill="#ffffff" opacity="1.000000" stroke="none" 
	d="
M80.017715,54.061424 
	C78.346573,49.676216 76.926773,45.608883 75.447815,41.563171 
	C74.899368,40.062851 74.470703,38.549088 76.239403,37.685493 
	C79.967758,35.865063 83.764244,34.952896 87.443039,37.855579 
	C90.671852,40.403210 92.194405,45.965759 90.257980,49.568512 
	C88.172234,53.449120 85.136261,56.017490 80.017715,54.061424 
M86.878258,49.941719 
	C88.597420,42.875992 85.503906,38.414604 79.466270,39.581467 
	C79.411682,43.445686 81.295135,46.812538 82.535347,50.301399 
	C83.425545,52.805618 85.087196,52.441845 86.878258,49.941719 
z"/>
<path fill="#ffffff" opacity="1.000000" stroke="none" 
	d="
M114.708954,35.133614 
	C118.206612,39.229374 118.036217,43.205551 115.596092,47.351368 
	C113.529907,50.861847 110.308830,51.540432 106.612679,51.291615 
	C103.303780,51.068863 101.772026,49.401138 102.280716,46.080032 
	C102.606842,43.950851 103.444695,41.829208 103.382751,39.723915 
	C103.138420,31.420900 107.328308,30.869066 114.708954,35.133614 
M106.413780,44.648983 
	C106.604614,46.201664 105.735046,47.975845 107.308800,49.242649 
	C112.101440,48.007595 115.297409,41.805771 113.225571,37.762398 
	C112.510155,36.366199 111.320801,35.330273 109.675865,35.519386 
	C108.055824,35.705631 107.835030,37.216606 107.555344,38.510090 
	C107.171944,40.283230 106.836487,42.066742 106.413780,44.648983 
z"/>
<path fill="#ffffff" opacity="1.000000" stroke="none" 
	d="
M97.750076,51.161369 
	C95.007805,51.090179 95.344788,49.073460 94.899261,47.572704 
	C93.708435,43.561359 95.098732,39.300064 93.656311,35.291660 
	C93.219193,34.076927 93.672859,32.967896 95.238014,32.811371 
	C96.867577,32.648403 97.820450,33.414867 97.857040,35.030376 
	C97.978249,40.382767 99.400757,45.718800 97.750076,51.161369 
z"/>
<path fill="#ffffff" opacity="1.000000" stroke="none" 
	d="
M124.082703,47.032738 
	C123.205856,49.217953 122.506973,51.066879 121.772438,52.901527 
	C121.307419,54.062996 120.635094,54.942497 119.166687,54.459412 
	C117.722260,53.984226 117.522858,52.962696 118.038345,51.717491 
	C119.867653,47.298588 121.649773,42.857426 123.608932,38.496189 
	C124.543625,36.415489 125.909431,37.339413 127.416351,38.545216 
	C126.370895,41.230820 125.308235,43.960613 124.082703,47.032738 
z"/>
<path fill="#ffffff" opacity="1.000000" stroke="none" 
	d="
M59.358212,138.689758 
	C58.198502,140.832321 57.574131,142.959213 55.805199,144.290146 
	C49.185215,140.491180 48.989468,138.791489 54.477711,133.624496 
	C56.062496,134.777054 54.637615,136.403366 55.137280,137.758163 
	C56.362896,139.302231 58.668003,133.914764 59.358212,138.689758 
z"/>
<path fill="#ffffff" opacity="1.000000" stroke="none" 
	d="
M126.404343,153.711395 
	C124.903511,155.443222 121.747574,152.196136 121.437225,156.028763 
	C120.063950,155.655151 119.661507,154.882904 119.620010,154.054794 
	C119.496544,151.590988 116.554420,148.371017 121.027679,147.015594 
	C125.612923,145.626221 125.000389,149.552612 125.735443,152.032852 
	C125.875481,152.505371 126.150002,152.938019 126.404343,153.711395 
z"/>
<path fill="#ffffff" opacity="1.000000" stroke="none" 
	d="
M96.474976,153.476532 
	C96.584099,150.474869 97.329620,148.542755 100.496986,148.692642 
	C101.770805,148.752930 102.787788,149.086487 103.240112,150.335709 
	C103.647713,151.461426 103.847855,153.105576 102.822563,153.513916 
	C100.540894,154.422607 99.965591,156.953018 98.156738,158.114929 
	C95.817635,157.204422 96.312523,155.467484 96.474976,153.476532 
z"/>
<path fill="#ffffff" opacity="1.000000" stroke="none" 
	d="
M72.590530,149.097656 
	C72.484291,150.392532 72.421425,151.366791 72.314629,153.021759 
	C70.318192,151.528748 68.719841,149.990082 66.320915,151.078613 
	C65.980362,147.189392 67.639587,144.747543 69.808014,142.351639 
	C72.381912,144.042328 73.342415,146.054810 72.590530,149.097656 
z"/>
<path fill="#ffffff" opacity="1.000000" stroke="none" 
	d="
M77.826324,145.180786 
	C79.086449,145.386368 80.014839,145.645615 81.804047,146.145264 
	C78.234802,148.283447 77.826057,151.525360 77.095459,154.625275 
	C73.493019,152.677567 73.659706,150.428268 77.826324,145.180786 
z"/>
<path fill="#ffffff" opacity="1.000000" stroke="none" 
	d="
M114.405945,148.973724 
	C116.092041,151.556793 118.900421,153.361450 118.185760,156.897430 
	C115.653870,157.507263 114.282494,153.251389 110.805336,156.989243 
	C112.206886,153.184692 111.279709,150.298767 114.405945,148.973724 
z"/>
<path fill="#ffffff" opacity="1.000000" stroke="none" 
	d="
M65.439667,147.216644 
	C64.798401,148.100693 64.282623,148.681412 63.580841,149.471542 
	C62.324062,147.455139 62.259106,145.019775 59.634422,144.624146 
	C60.989845,141.896500 63.004520,141.010559 65.565163,139.442612 
	C65.565163,142.487274 65.565163,144.700287 65.439667,147.216644 
z"/>
<path fill="#ffffff" opacity="1.000000" stroke="none" 
	d="
M167.353027,100.421150 
	C168.458435,102.752380 167.673096,103.950775 165.590302,104.143478 
	C163.829971,104.306328 161.759537,104.858650 160.472473,103.281715 
	C159.366791,101.926994 159.736069,100.370041 161.679077,99.919632 
	C163.441452,99.511070 165.269470,99.487015 167.353027,100.421150 
z"/>
<path fill="#ffffff" opacity="1.000000" stroke="none" 
	d="
M34.660439,103.671623 
	C33.494339,101.177528 34.686249,100.218163 36.632236,100.033195 
	C38.404697,99.864708 40.471798,99.384422 41.689259,101.179222 
	C42.573700,102.483070 42.184036,103.828331 40.418018,104.166725 
	C38.613766,104.512459 36.776535,104.554443 34.660439,103.671623 
z"/>
<path fill="#ffffff" opacity="1.000000" stroke="none" 
	d="
M88.758652,156.986038 
	C86.332535,153.606216 88.091995,151.024979 89.737411,147.263596 
	C91.116898,151.174973 90.076134,154.422226 91.675682,156.959869 
	C90.693153,158.349442 89.839043,157.697021 88.758652,156.986038 
z"/>
<path fill="#ffffff" opacity="1.000000" stroke="none" 
	d="
M137.922913,147.776581 
	C138.358353,149.026215 138.644669,149.959259 137.461060,150.998932 
	C134.634613,148.762802 133.671494,145.913177 133.406616,141.801468 
	C136.776749,143.046951 136.873032,145.553360 137.922913,147.776581 
z"/>
<path fill="#ffffff" opacity="1.000000" stroke="none" 
	d="
M130.997025,147.090134 
	C131.091736,149.197128 132.628769,150.728577 131.725769,153.145432 
	C128.331955,151.381577 128.485901,147.897186 126.997925,145.391342 
	C129.501801,143.382599 130.416107,144.573929 130.997025,147.090134 
z"/>
<path fill="#ffffff" opacity="1.000000" stroke="none" 
	d="
M144.890472,136.542999 
	C149.949265,136.142319 149.212006,140.511826 150.725784,143.125992 
	C147.077362,142.466370 146.262238,139.371964 144.890472,136.542999 
z"/>
<path fill="#ffffff" opacity="1.000000" stroke="none" 
	d="
M138.432404,140.782440 
	C140.122391,141.201294 141.147064,142.319504 142.973480,142.453918 
	C145.579330,142.645691 145.732224,143.472076 144.949249,147.383636 
	C143.435455,145.294250 141.691254,144.340820 139.299667,144.201187 
	C137.423538,144.091644 137.158813,142.497086 138.432404,140.782440 
z"/>
</svg>